<svg xmlns="http://www.w3.org/2000/svg" viewBox="0 0 49.52 45.68"><defs><style>.cls-1{fill:#02e;}.cls-2{fill:#04f;}.cls-3{fill:#00c;}</style></defs><g id="lines-logo" data-name="lines-logo"><polygon class="cls-1" points="49.06 28.51 44.81 27.24 48.35 25.3 47.87 23.18 43.01 22 47.13 19.86 46.64 17.67 41 16.62 45.87 14.24 45.36 11.98 38.63 11.14 44.57 8.43 44.05 6.09 35.71 5.6 43.22 2.42 42.68 0 25.06 0.18 0 9.66 0.73 11.75 6.32 13.13 1.86 14.92 2.57 16.94 7.13 18.54 3.66 20.02 4.35 21.98 8.23 23.7 5.41 24.97 6.08 26.87 9.47 28.66 7.1 29.78 7.76 31.63 10.77 33.44 8.75 34.44 9.39 36.24 23.45 45.68 49.52 30.57 49.06 28.51"/><polygon class="cls-2" points="49.06 28.51 49.52 30.57 23.45 45.68 22.75 43.46 49.06 28.51"/><polygon class="cls-3" points="23.45 45.68 9.39 36.24 8.75 34.44 22.75 43.46 23.45 45.68"/><polygon class="cls-2" points="47.87 23.18 48.35 25.3 21.64 39.98 20.91 37.69 47.87 23.18"/><polygon class="cls-3" points="21.64 39.98 7.76 31.63 7.1 29.78 20.91 37.69 21.64 39.98"/><polygon class="cls-2" points="46.64 17.67 47.13 19.86 19.75 34.07 18.99 31.69 46.64 17.67"/><polygon class="cls-3" points="19.75 34.07 6.08 26.87 5.41 24.97 18.99 31.69 19.75 34.07"/><polygon class="cls-2" points="45.36 11.98 45.87 14.24 17.8 27.94 17.01 25.46 45.36 11.98"/><polygon class="cls-3" points="17.8 27.94 4.35 21.98 3.66 20.02 17.01 25.46 17.8 27.94"/><polygon class="cls-2" points="44.05 6.09 44.57 8.43 15.77 21.56 14.95 18.99 44.05 6.09"/><polygon class="cls-3" points="15.77 21.56 2.57 16.94 1.86 14.92 14.95 18.99 15.77 21.56"/><polygon class="cls-2" points="42.68 0 43.22 2.42 13.65 14.93 12.8 12.26 42.68 0"/><polygon class="cls-3" points="13.65 14.93 0.73 11.75 0 9.66 12.8 12.26 13.65 14.93"/></g></svg>